<?xml version="1.0" encoding="UTF-8" standalone="no"?>
<!DOCTYPE svg PUBLIC "-//W3C//DTD SVG 1.1//EN" "http://www.w3.org/Graphics/SVG/1.1/DTD/svg11.dtd">
<svg width="100%" height="100%" viewBox="0 0 3000 3000" version="1.1" xmlns="http://www.w3.org/2000/svg" xmlns:xlink="http://www.w3.org/1999/xlink" xml:space="preserve" xmlns:serif="http://www.serif.com/" style="fill-rule:evenodd;clip-rule:evenodd;stroke-linejoin:round;stroke-miterlimit:2;">
    <g id="V2-for-svg-export" serif:id="V2 for svg export" transform="matrix(1.30211,0,0,1.30211,-437.098,-297.161)">
        <g id="vertical">
            <g transform="matrix(0.820558,0,0,1.19067,129.55,-816.529)">
                <path d="M938.934,1083.53L938.934,2751.84L817.066,2800.33L817.066,1132.02L938.934,1083.53Z" style="fill:rgb(181,40,21);"/>
            </g>
            <g transform="matrix(0.820558,0,0,1.20681,229.55,-860.794)">
                <path d="M938.934,1057.87L938.934,2703.86L817.066,2751.7L817.066,1105.71L938.934,1057.87Z" style="fill:rgb(206,147,11);"/>
            </g>
            <g transform="matrix(0.820558,0,0,1.24223,329.55,-957.686)">
                <path d="M938.934,1059.23L938.934,2658.3L817.066,2704.78L817.066,1105.71L938.934,1059.23Z" style="fill:rgb(217,194,99);"/>
            </g>
            <g transform="matrix(0.820558,0,0,1.28287,429.55,-1060.36)">
                <path d="M938.934,1060.7L938.934,2609.11L817.066,2654.11L817.066,1105.71L938.934,1060.7Z" style="fill:rgb(63,153,149);"/>
            </g>
            <g transform="matrix(1.64112,0,0,1.32461,-140.9,-1164.25)">
                <path d="M878,1062.12L878,2561.73L817.066,2605.32L817.066,1105.71L878,1062.12Z" style="fill:rgb(12,74,89);"/>
            </g>
        </g>
        <g id="upper">
            <g transform="matrix(0.410279,-0.710624,1.03115,0.595333,-252.499,235.951)">
                <path d="M817.066,2015.82L817.066,1083.53L938.934,1132.02L938.934,2064.31L137.341,2383.25L15.472,2334.76L15.472,1402.47L137.341,1450.96L137.341,2286.27L817.066,2015.82Z" style="fill:rgb(19,108,131);"/>
            </g>
            <g transform="matrix(0.410279,-0.710624,1.03115,0.595333,-352.499,293.686)">
                <path d="M817.066,2015.82L817.066,1083.53L938.934,1132.02L938.934,2064.31L137.341,2383.25L15.472,2334.76L15.472,1402.47L137.341,1450.96L137.341,2286.27L817.066,2015.82Z" style="fill:rgb(77,181,176);"/>
            </g>
            <g transform="matrix(0.410279,-0.710624,1.03115,0.595333,-452.499,351.421)">
                <path d="M817.066,2015.82L817.066,1083.53L938.934,1132.02L938.934,2064.31L137.341,2383.25L15.472,2334.76L15.472,1402.47L137.341,1450.96L137.341,2286.27L817.066,2015.82Z" style="fill:rgb(236,224,176);"/>
            </g>
            <g transform="matrix(0.410279,-0.710624,1.03115,0.595333,-552.499,409.156)">
                <path d="M817.066,2015.82L817.066,1083.53L938.934,1132.02L938.934,2064.31L137.341,2383.25L15.472,2334.76L15.472,1402.47L137.341,1450.96L137.341,2286.27L817.066,2015.82Z" style="fill:rgb(242,176,20);"/>
            </g>
            <g transform="matrix(0.410279,-0.710624,1.03115,0.595333,-652.499,466.891)">
                <path d="M817.066,2015.82L817.066,1083.53L938.934,1132.02L938.934,2064.31L137.341,2383.25L15.472,2334.76L15.472,1402.47L137.341,1450.96L137.341,2286.27L817.066,2015.82Z" style="fill:rgb(227,58,34);"/>
            </g>
        </g>
        <g id="lower">
        </g>
        <g id="vertical-shorter" serif:id="vertical shorter">
        </g>
    </g>
</svg>
